<svg width="81" height="56" viewBox="0 0 81 56" fill="none" xmlns="http://www.w3.org/2000/svg">
<path d="M13.1031 27.6253C13.2977 27.2288 13.7245 26.996 14.1568 27.0863C15.1473 27.2934 16.1982 27.6614 17.2998 28.1748C19.4692 29.1859 21.8182 30.7517 24.2646 32.7227C30.7495 37.9472 37.8718 45.9829 44.0842 53.9451C44.609 54.6177 44.1273 55.5947 43.2742 55.5947H1.03083C0.268855 55.5947 -0.229085 54.7957 0.106575 54.1117L13.1031 27.6253ZM57.2322 50.9896C56.9498 51.5651 56.2141 51.7448 55.7032 51.3575C49.6092 46.7371 45.8283 42.4257 43.9472 38.375C41.6025 33.3256 42.2013 28.6627 44.9941 24.2607C47.7957 19.845 52.8071 15.6898 59.291 11.7021C65.0741 8.14549 72.0125 4.73085 79.5622 1.38616C80.4376 0.998362 81.3138 1.91473 80.892 2.77424L57.2322 50.9896ZM51.9329 0C52.8953 0 53.3288 1.20344 52.5879 1.81777C43.2734 9.54134 36.4103 14.8594 31.206 18.1016C28.11 20.0303 25.6139 21.217 23.5478 21.7412C21.4872 22.264 19.8658 22.1256 18.5013 21.4221C18.5011 21.4219 18.5008 21.4219 18.5005 21.4219C18.5001 21.4219 18.4998 21.4218 18.4995 21.4216C17.9437 21.113 17.513 20.7123 17.1937 20.2303C17.0186 19.9659 17.0269 19.6275 17.1666 19.3429L26.3765 0.575963C26.5495 0.223415 26.908 0 27.3007 0H51.9329Z" fill="#D0EF3A"/>
</svg>
